<?xml version="1.0" encoding="iso-8859-1"?>
<!-- Generator: Adobe Illustrator 23.0.3, SVG Export Plug-In . SVG Version: 6.00 Build 0)  -->
<svg version="1.1" id="Capa_1" xmlns="http://www.w3.org/2000/svg" xmlns:xlink="http://www.w3.org/1999/xlink" x="0px" y="0px"
	 viewBox="0 0 512 512" style="enable-background:new 0 0 512 512;" xml:space="preserve">
<g>
	<path style="fill-rule:evenodd;clip-rule:evenodd;" d="M208.437,32.367h-0.23c-4.174,0-7.556,3.383-7.556,7.557
		s3.383,7.557,7.556,7.557h0.23c4.174,0,7.556-3.383,7.556-7.557S212.611,32.367,208.437,32.367z"/>
	<path style="fill-rule:evenodd;clip-rule:evenodd;" d="M213.06,353.132h-0.201c-4.174,0-7.556,3.383-7.556,7.557
		s3.383,7.557,7.556,7.557h0.201c4.174,0,7.556-3.383,7.556-7.557S217.234,353.132,213.06,353.132z"/>
	<path style="fill-rule:evenodd;clip-rule:evenodd;" d="M212.227,344.717h0.201c4.174,0,7.556-3.383,7.556-7.557
		c0-4.174-3.383-7.557-7.556-7.557h-0.201c-4.174,0-7.556,3.383-7.556,7.557C204.671,341.334,208.054,344.717,212.227,344.717z"/>
	<path style="fill-rule:evenodd;clip-rule:evenodd;" d="M125.829,344.253c-1.849,3.818-3.51,7.941-4.93,12.229
		c-3.76,11.233-3.127,20.455,1.879,27.412c5.373,7.464,15.324,11.409,28.775,11.409h122.986c13.464,0,23.423-3.948,28.801-11.418
		c5.006-6.956,5.64-16.176,1.89-27.38c-1.452-4.384-3.13-8.521-4.967-12.252c-10.023-20.697-27.259-36.738-48.473-45.56
		c10.1-9.48,15.92-21.933,15.92-34.701v-17.617c0.13-1.908,0.085-3.991,0.039-5.85c-0.02-0.77-0.039-1.499-0.039-2.17
		c-0.212-36.88-26.901-53.356-53.321-53.356c-0.06,0-0.123,0-0.183,0c-13.972,0.04-27.854,4.738-38.089,12.89
		c-11.714,9.33-18.164,22.646-18.164,37.496v10.818v17.79c0,13.179,6.257,25.591,16.101,34.806
		C152.95,307.645,135.808,323.646,125.829,344.253z M173.065,235.384c0-22.833,21.219-35.214,41.184-35.271c0.045,0,0.087,0,0.132,0
		c17.558,0,38.052,10.03,38.215,38.284c0,0.081,0,0.164,0,0.248h-19.522c-16.398,0-22.604-3.738-28.592-7.345
		c-1.163-0.704-2.207-1.391-3.217-2.056c-3.29-2.165-6.681-4.395-10.897-4.395c-0.497,0-1.007,0.031-1.529,0.098
		c-5.693,0.72-9.571,5.273-12.911,10.087c-1.353,1.949-2.183,2.846-2.862,3.259V235.384z M173.065,253.696
		c7.647-0.572,11.867-5.134,15.276-10.043c1.116-1.606,1.915-2.585,2.453-3.173c0.659,0.4,1.461,0.928,2.162,1.39
		c1.075,0.707,2.292,1.508,3.713,2.369c6.671,4.018,15.805,9.519,36.404,9.519h19.522v10.233c0,10.626-6.276,21.147-16.79,28.143
		c-6.946,4.627-15.006,7.168-22.718,7.168c-0.07,0-0.141,0-0.211,0c-6.306-0.038-12.438-1.614-17.929-4.292
		c-0.512-0.346-1.062-0.633-1.645-0.846c-11.798-6.383-20.237-17.936-20.237-30.174V253.696z M189.808,309.311
		c7.073,3.208,14.886,5.057,22.977,5.106c0.101,0.001,0.199,0.001,0.299,0.001c7.715,0,15.619-1.809,22.961-5.175
		c22.355,6.104,40.711,21.147,50.636,41.641c1.553,3.156,2.966,6.645,4.209,10.396c1.462,4.369,2.681,10.305,0.184,13.775
		c-2.349,3.263-8.376,5.135-16.534,5.135h-0.11v-25.325c0-4.174-3.383-7.557-7.556-7.557s-7.556,3.383-7.556,7.557v25.325h-93.803
		v-25.325c0-4.174-3.383-7.557-7.556-7.557s-7.556,3.383-7.556,7.557v25.309c-7.557-0.17-13.124-2.008-15.355-5.109
		c-2.498-3.471-1.278-9.411,0.193-13.806c1.22-3.687,2.632-7.191,4.194-10.417C149.295,330.472,167.558,315.462,189.808,309.311z"/>
	<path style="fill-rule:evenodd;clip-rule:evenodd;" d="M467.289,190.78c-3.356-50.472-45.667-89.282-95.614-89.016
		c0.038-16.575,0.081-33.457,0.151-50.319c0.053-0.362,0.09-0.729,0.09-1.105c0-0.355-0.033-0.701-0.08-1.043
		c0.024-5.485,0.05-10.967,0.08-16.432C371.915,14.743,357.164,0,339.032,0H77.383C59.251,0,44.5,14.743,44.5,32.865V227.12
		c0,4.174,3.383,7.557,7.556,7.557s7.556-3.383,7.556-7.557V57.896h92.365c13.581-0.098,18.677,0.47,22.533,7.115
		c6.883,11.844,19.773,19.17,33.64,19.169c0.096,0,0.191,0,0.287-0.001c13.54,0,26.076-7.081,33.535-18.947
		c4.314-6.871,9.044-7.249,22.086-7.331l92.629-0.004c-0.057,15.138-0.095,30.262-0.129,45.134
		c-21.76,3.564-41.44,14.45-56.156,31.237c-16.786,19.149-25.101,43.681-23.412,69.071c1.147,17.502,7.022,34.146,17.044,48.393
		c-0.871,2.669-1.624,5.148-2.36,7.572c-1.078,3.551-2.097,6.905-3.456,10.812c-0.23,0.663-0.368,1.356-0.407,2.058
		c-0.746,13.23,5.584,19.344,9.424,21.811c3.528,2.266,7.886,3.395,12.527,3.394c5.023,0,10.378-1.322,15.369-3.952l13.487-7.123
		c5.863,2.206,11.862,3.804,17.964,4.806c0.022,16.356,0.047,32.713,0.073,49.071c0.06,38.048,0.121,77.174,0.14,116.048H227.475
		c-4.174,0-7.556,3.383-7.556,7.557c0,4.174,3.383,7.557,7.556,7.557h129.326c0,2.598,0.001,5.2,0.001,7.794
		c0,9.788-7.972,17.751-17.77,17.751H77.383c-9.798,0-17.77-7.963-17.77-17.751v-7.794h132.629c4.174,0,7.556-3.383,7.556-7.557
		c0-4.174-3.383-7.557-7.556-7.557H59.613V262.155c0-4.174-3.383-7.557-7.556-7.557s-7.556,3.383-7.556,7.557v216.981
		C44.5,497.257,59.251,512,77.383,512h261.648c18.133,0,32.883-14.743,32.883-32.865c0-5.089-0.001-10.189-0.003-15.293
		c0-0.02,0.003-0.039,0.003-0.058c0-0.02-0.003-0.039-0.003-0.059c-0.014-41.344-0.079-83.069-0.143-123.569
		c-0.025-15.938-0.049-31.873-0.072-47.809c2.227,0.004,4.464-0.062,6.71-0.213c25.415-1.673,48.656-13.136,65.444-32.277
		C460.64,240.714,468.964,216.184,467.289,190.78z M264.669,42.782l-0.706,0.004c-13.292,0.084-25.846,0.163-34.788,14.405
		c-2.244,3.57-8.757,11.874-20.792,11.874c-0.061,0-0.12,0-0.18,0c-8.552,0-16.443-4.451-20.623-11.644
		c-8.598-14.822-22.382-14.731-35.653-14.639H59.613v-9.918c0-9.788,7.972-17.751,17.77-17.751h261.648
		c9.798,0,17.77,7.963,17.77,17.709c-0.019,3.314-0.036,6.635-0.052,9.96H264.669z M432.489,249.891
		c-14.127,16.108-33.686,25.753-55.085,27.162c-12.546,0.841-24.762-1.183-36.31-6.028c-2.086-0.876-4.453-0.769-6.452,0.286
		l-16.563,8.748c-4.632,2.443-9.962,2.952-12.673,1.21c-2.112-1.356-2.579-4.526-2.539-7.268c1.279-3.745,2.29-7.076,3.271-10.304
		c1.077-3.546,2.094-6.895,3.45-10.795c0.837-2.406,0.405-5.072-1.149-7.091c-9.666-12.562-15.326-27.589-16.367-43.467
		c-1.421-21.364,5.575-42.002,19.697-58.112s33.681-25.765,55.068-27.185c44.145-2.913,82.439,30.621,85.373,74.732
		C453.617,213.147,446.614,233.785,432.489,249.891z"/>
	<path style="fill-rule:evenodd;clip-rule:evenodd;" d="M423.654,161.344h-58.894c-2.968,0-5.661,1.737-6.884,4.44l-19.166,42.334
		l-12.257-12.513c-2.92-2.979-7.705-3.031-10.686-0.109c-2.982,2.921-3.03,7.705-0.109,10.687l19.986,20.401
		c1.434,1.464,3.385,2.269,5.398,2.269c0.437,0,0.878-0.038,1.316-0.116c2.456-0.434,4.54-2.052,5.568-4.325l21.709-47.954h54.02
		c4.174,0,7.556-3.383,7.556-7.557C431.211,164.727,427.828,161.344,423.654,161.344z"/>
	<path style="fill-rule:evenodd;clip-rule:evenodd;" d="M402.032,205.686l6.576-7.173c1.177-1.349,1.924-2.898,1.924-4.706
		c0-1.779-0.632-3.357-1.953-4.591c-1.235-1.263-2.814-1.894-4.623-1.894c-2.067,0-3.79,0.889-5.083,2.497l-5.054,6.341
		l-4.968-6.313c-1.292-1.636-3.015-2.525-5.083-2.525c-0.89,0-1.78,0.144-2.613,0.488c-0.747,0.344-1.436,0.775-2.039,1.32
		l-0.029,0.029l-0.029,0.029c-1.264,1.262-1.867,2.841-1.867,4.62c0,1.808,0.747,3.386,1.953,4.706l6.576,7.173l-8.557,9.326
		c-1.062,1.148-1.493,2.64-1.493,4.218c0,1.808,0.632,3.415,1.924,4.677c1.292,1.291,2.9,1.951,4.709,1.951
		c2.182,0,3.963-1.32,5.312-2.927l6.202-7.747l6.317,7.747c1.349,1.607,3.101,2.927,5.283,2.927c1.838,0,3.417-0.66,4.709-1.951
		c1.292-1.262,1.924-2.869,1.924-4.677c0-1.578-0.488-3.041-1.551-4.189L402.032,205.686z"/>
</g>
<g>
</g>
<g>
</g>
<g>
</g>
<g>
</g>
<g>
</g>
<g>
</g>
<g>
</g>
<g>
</g>
<g>
</g>
<g>
</g>
<g>
</g>
<g>
</g>
<g>
</g>
<g>
</g>
<g>
</g>
</svg>
